<svg xmlns="http://www.w3.org/2000/svg" version="1.1" xmlns:xlink="http://www.w3.org/1999/xlink" xmlns:svgjs="http://svgjs.dev/svgjs" viewBox="0 0 31.665898005006348 8.494231266075962"><g transform="matrix(0.7173631245252649,0,0,0.7173631245252649,5.675366727920078,3.3669110792454813)"><g clip-path="url(#SvgjsClipPath86065)"><g clip-path="url(#b2ae39227-433f-4a90-abbf-8218d069c449fe2efcbc-cfb1-4666-a902-8bf658ecca35)"><path d=" M 28.173981254753485 2.3158023628624225 L 28.173981254753485 -1.2250105343293056 C 28.173981254753485 -1.2919864009615616 28.145104231568602 -1.3467769134095517 28.10981202907068 -1.3467769134095517 L 26.826558259558208 -1.3467769134095517 C 26.79126605706029 -1.3467769134095517 26.762397750151646 -1.2919864009615616 26.762397750151646 -1.2250105343293056 L 26.762397750151646 2.3158023628624225 C 26.762397750151646 2.3827782294946784 26.79126605706029 2.437577458218909 26.826558259558208 2.437577458218909 L 28.10981202907068 2.437577458218909 C 28.145104231568602 2.437577458218909 28.173981254753485 2.3827782294946784 28.173981254753485 2.3158023628624225" fill="#b0aeaf" transform="matrix(1,0,0,1,0,0)" fill-rule="nonzero"></path></g><g clip-path="url(#b2ae39227-433f-4a90-abbf-8218d069c449fe2efcbc-cfb1-4666-a902-8bf658ecca35)"><path d=" M 27.98207500076567 -1.1297590675727605 L 26.954295287863218 -1.1297590675727605 C 26.93484927557059 -1.1297590675727605 26.918942071431616 -1.1263945849439148 26.918942071431616 -1.122280502558383 L 26.918942071431616 -0.972717918547077 C 26.918942071431616 -0.9686038361615454 26.93484927557059 -0.9652393535326997 26.954286571586977 -0.9652393535326997 L 27.98207500076567 -0.9652393535326997 C 28.001521013058298 -0.9652393535326997 28.01741950092103 -0.9686038361615454 28.01741950092103 -0.972717918547077 L 28.01742821719727 -1.122280502558383 C 28.01742821719727 -1.1263945849439148 28.001521013058298 -1.1297590675727605 27.98207500076567 -1.1297590675727605" fill="#231f20" transform="matrix(1,0,0,1,0,0)" fill-rule="nonzero"></path></g><g clip-path="url(#b2ae39227-433f-4a90-abbf-8218d069c449fe2efcbc-cfb1-4666-a902-8bf658ecca35)"><path d=" M 27.98207500076567 -0.8822865525515475 L 26.954295287863218 -0.8822865525515475 C 26.93484927557059 -0.8822865525515475 26.918942071431616 -0.8768563124536954 26.918942071431616 -0.8702145099584093 L 26.918942071431616 -0.6288433883055689 C 26.918942071431616 -0.6222015858102827 26.93484927557059 -0.6167713457124308 26.954286571586977 -0.6167713457124308 L 27.98207500076567 -0.6167713457124308 C 28.00151229678206 -0.6167713457124308 28.01741950092103 -0.6222015858102827 28.01741950092103 -0.6288433883055689 L 28.01742821719727 -0.8702145099584093 C 28.01742821719727 -0.8768563124536954 28.001521013058298 -0.8822865525515475 27.98207500076567 -0.8822865525515475" fill="#231f20" transform="matrix(1,0,0,1,0,0)" fill-rule="nonzero"></path></g><g clip-path="url(#b2ae39227-433f-4a90-abbf-8218d069c449fe2efcbc-cfb1-4666-a902-8bf658ecca35)"><path d=" M 27.98207500076567 -0.46623253876218496 L 26.954295287863218 -0.46624997131466606 C 26.93484927557059 -0.46624997131466606 26.918942071431616 -0.4267913887737731 26.918942071431616 -0.3785642323349039 L 26.918942071431616 2.195264978732091 C 26.918942071431616 2.2434921351709605 26.93484927557059 2.2829594339880934 26.954286571586977 2.2829594339880934 L 27.98207500076567 2.2829768665405745 C 28.00151229678206 2.2829768665405745 28.01741950092103 2.243518283999682 28.01741950092103 2.1952911275608127 L 28.01742821719727 -0.37853808350618245 C 28.01742821719727 -0.42676523994505144 28.001521013058298 -0.46623253876218496 27.98207500076567 -0.46623253876218496" fill="#231f20" transform="matrix(1,0,0,1,0,0)" fill-rule="nonzero"></path></g><g clip-path="url(#b2ae39227-433f-4a90-abbf-8218d069c449fe2efcbc-cfb1-4666-a902-8bf658ecca35)"><path d=" M 22.879348982651628 2.3834580990414396 L 25.236997110400925 2.3834580990414396 L 25.236997110400925 2.264855728236507 L 22.879348982651628 2.264855728236507 Z M 21.545253173828126 3.8007769134095515 L 28.31922056574949 3.8007769134095515 L 28.31922056574949 3.7574744530465836 L 21.545253173828126 3.7574744530465836 Z M 23.718813547377362 2.264855728236507 L 24.397532545675187 2.264855728236507 L 24.397532545675187 1.3675325218261136 L 23.718813547377362 1.3675325218261136 Z" fill="#b0aeaf" transform="matrix(1,0,0,1,0,0)" fill-rule="nonzero"></path></g><g clip-path="url(#b2ae39227-433f-4a90-abbf-8218d069c449fe2efcbc-cfb1-4666-a902-8bf658ecca35)"><path d=" M 26.409371129857576 -1.3153460212861896 L 21.706983679471215 -1.3153460212861896 C 21.618034080436576 -1.3153460212861896 21.545253173828126 -1.2425738309539796 21.545253173828126 -1.15362423191934 L 21.545253173828126 1.2130539580151471 C 21.545253173828126 1.3020035570497863 21.618034080436576 1.3747757473819964 21.706983679471215 1.3747757473819964 L 26.409371129857576 1.3747757473819964 C 26.498320728892217 1.3747757473819964 26.571092919224427 1.3020035570497863 26.571092919224427 1.2130539580151471 L 26.571092919224427 -1.1536242319193404 C 26.571092919224427 -1.2425738309539796 26.498320728892217 -1.3153460212861896 26.409371129857576 -1.3153460212861896" fill="#cccbcc" transform="matrix(1,0,0,1,0,0)" fill-rule="nonzero"></path></g><g clip-path="url(#b2ae39227-433f-4a90-abbf-8218d069c449fe2efcbc-cfb1-4666-a902-8bf658ecca35)"><path d=" M 21.545253173828126 1.093109280669172 L 21.545253173828126 1.2130539580151471 C 21.545253173828126 1.3020035570497863 21.618034080436576 1.3747757473819964 21.706983679471215 1.3747757473819964 L 26.409371129857576 1.3747757473819964 C 26.498312012615976 1.3747757473819964 26.571092919224427 1.3020035570497863 26.571092919224427 1.2130539580151471 L 26.571092919224427 1.0931267132216531 Z" fill="#b0aeaf" transform="matrix(1,0,0,1,0,0)" fill-rule="nonzero"></path></g><g clip-path="url(#b2ae39227-433f-4a90-abbf-8218d069c449fe2efcbc-cfb1-4666-a902-8bf658ecca35)"><path d=" M 21.687154151024004 -1.1513754326492827 L 21.687154151024004 1.093109280669172 L 26.429183225752308 1.0846806415445767 L 26.429183225752308 -1.1513754326492827 Z" fill="#dc1546" transform="matrix(1,0,0,1,0,0)" fill-rule="nonzero"></path></g><g clip-path="url(#b2ae39227-433f-4a90-abbf-8218d069c449fe2efcbc-cfb1-4666-a902-8bf658ecca35)"><path d=" M 24.749199426875734 -1.1513754326492827 L 23.598650963125376 1.093109280669172 L 26.42919194202855 1.0846806415445767 L 26.42919194202855 -1.1513754326492827 Z" fill="#3a2f86" transform="matrix(1,0,0,1,0,0)" fill-rule="nonzero"></path></g></g><g><path d=" M 2.3579501953125033 0.546 L 2.9864501953125036 0.546 L 2.9864501953125036 1.068 L 3.1229501953125034 1.068 L 3.1229501953125034 0.018000000000000016 L 2.9864501953125036 0.018000000000000016 L 2.9864501953125036 0.4770000000000001 L 2.3579501953125033 0.4770000000000001 L 2.3579501953125033 0.018000000000000016 L 2.2214501953125034 0.018000000000000016 L 2.2214501953125034 1.068 L 2.3579501953125033 1.068 L 2.3579501953125033 0.546 M 3.4214553222656283 0.018000000000000016 L 3.4214553222656283 0.663 Q 3.4214553222656283 0.7245 3.4334553222656283 0.7987500000000001 Q 3.4454553222656283 0.873 3.4904553222656283 0.9367500000000001 Q 3.535455322265628 1.0005000000000002 3.623955322265628 1.04325 Q 3.7124553222656282 1.086 3.8654553222656283 1.086 Q 3.9614553222656284 1.086 4.0357053222656285 1.056 Q 4.109955322265629 1.026 4.160205322265628 0.9735 Q 4.210455322265628 0.921 4.235955322265628 0.8512500000000001 Q 4.261455322265628 0.7815000000000001 4.261455322265628 0.7020000000000001 L 4.261455322265628 0.018000000000000016 L 4.195455322265628 0.018000000000000016 L 4.195455322265628 0.6525000000000001 Q 4.195455322265628 0.6855 4.193955322265628 0.7192500000000001 Q 4.192455322265628 0.7530000000000001 4.184955322265628 0.7867500000000001 Q 4.1774553222656285 0.8205 4.161705322265628 0.8535 Q 4.145955322265628 0.8865000000000001 4.115955322265628 0.9195000000000001 Q 4.061955322265629 0.9780000000000001 3.9944553222656283 0.9990000000000001 Q 3.9269553222656284 1.02 3.8534553222656283 1.02 Q 3.790455322265628 1.02 3.741705322265628 1.0005000000000002 Q 3.6929553222656284 0.9810000000000001 3.649455322265628 0.9420000000000001 Q 3.614955322265628 0.912 3.5969553222656283 0.8820000000000001 Q 3.578955322265628 0.8520000000000001 3.569955322265628 0.8227500000000001 Q 3.5609553222656283 0.7935000000000001 3.559455322265628 0.7635000000000001 Q 3.557955322265628 0.7335 3.557955322265628 0.7035 L 3.557955322265628 0.018000000000000016 L 3.4214553222656283 0.018000000000000016 M 5.405911376953128 0.018000000000000016 L 5.405911376953128 0.8205 L 5.399911376953128 0.8205 L 4.567411376953128 0 L 4.559911376953128 0 L 4.559911376953128 1.068 L 4.628911376953128 1.068 L 4.628911376953128 0.26550000000000007 L 4.634911376953128 0.26550000000000007 L 5.4674113769531285 1.086 L 5.474911376953128 1.086 L 5.474911376953128 0.018000000000000016 L 5.405911376953128 0.018000000000000016 M 6.221874755859378 1.068 L 6.221874755859378 0.10050000000000003 L 6.6238747558593785 0.10050000000000003 L 6.6238747558593785 0.018000000000000016 L 5.683374755859378 0.018000000000000016 L 5.683374755859378 0.10050000000000003 L 6.0853747558593785 0.10050000000000003 L 6.0853747558593785 1.068 L 6.221874755859378 1.068 M 6.832363037109378 0.018000000000000016 L 6.832363037109378 1.068 L 7.510363037109378 1.068 L 7.510363037109378 0.9855 L 6.968863037109378 0.9855 L 6.968863037109378 0.546 L 7.433863037109378 0.546 L 7.433863037109378 0.4770000000000001 L 6.968863037109378 0.4770000000000001 L 6.968863037109378 0.10050000000000003 L 7.510363037109378 0.10050000000000003 L 7.510363037109378 0.018000000000000016 L 6.832363037109378 0.018000000000000016 M 7.733847656250003 0.018000000000000016 L 7.733847656250003 1.068 L 7.8703476562500025 1.068 L 7.8703476562500025 0.6045 L 7.936347656250003 0.6045 Q 7.978347656250003 0.6045 8.006097656250002 0.6120000000000001 Q 8.033847656250003 0.6195 8.056347656250002 0.6375000000000001 Q 8.078847656250003 0.6555 8.098347656250002 0.684 Q 8.117847656250003 0.7125000000000001 8.144847656250002 0.7545000000000001 L 8.263347656250003 0.93 Q 8.285847656250002 0.9645 8.307597656250003 0.9930000000000001 Q 8.329347656250002 1.0215 8.354847656250003 1.04175 Q 8.380347656250002 1.062 8.412597656250004 1.074 Q 8.444847656250003 1.086 8.489847656250003 1.086 Q 8.522847656250002 1.086 8.543847656250003 1.083 Q 8.564847656250002 1.08 8.585847656250003 1.068 L 8.585847656250003 1.0125 Q 8.578347656250003 1.014 8.570847656250002 1.01475 Q 8.563347656250002 1.0155 8.555847656250004 1.0155 Q 8.524347656250002 1.0155 8.500347656250003 1.0065 Q 8.476347656250002 0.9975 8.455347656250003 0.9802500000000001 Q 8.434347656250003 0.9630000000000001 8.414847656250004 0.93825 Q 8.395347656250003 0.9135000000000001 8.374347656250002 0.8820000000000001 Q 8.311347656250003 0.7905 8.276847656250004 0.7357500000000001 Q 8.242347656250002 0.681 8.222097656250003 0.651 Q 8.201847656250003 0.621 8.189097656250002 0.6075 Q 8.176347656250003 0.5940000000000001 8.158347656250003 0.5850000000000001 L 8.143347656250002 0.5775000000000001 L 8.143347656250002 0.5715000000000001 Q 8.215347656250003 0.5670000000000001 8.267097656250003 0.54 Q 8.318847656250004 0.513 8.351847656250003 0.47250000000000003 Q 8.384847656250003 0.43200000000000005 8.399847656250003 0.38475000000000004 Q 8.414847656250004 0.3375 8.414847656250004 0.2925000000000001 Q 8.414847656250004 0.252 8.399097656250003 0.20400000000000007 Q 8.383347656250002 0.15600000000000003 8.345097656250003 0.11475000000000002 Q 8.306847656250003 0.07350000000000001 8.240847656250002 0.04574999999999996 Q 8.174847656250003 0.018000000000000016 8.074347656250003 0.018000000000000016 L 7.733847656250003 0.018000000000000016 M 7.8703476562500025 0.08400000000000007 L 8.021847656250003 0.08400000000000007 Q 8.078847656250003 0.08400000000000007 8.124597656250003 0.10050000000000003 Q 8.170347656250003 0.11699999999999999 8.203347656250003 0.14625 Q 8.236347656250002 0.1755 8.253597656250003 0.21600000000000008 Q 8.270847656250004 0.25650000000000006 8.270847656250004 0.3045 Q 8.270847656250004 0.3450000000000001 8.255097656250003 0.3862500000000001 Q 8.239347656250002 0.4275000000000001 8.207847656250003 0.46125000000000005 Q 8.176347656250003 0.495 8.130597656250004 0.516 Q 8.084847656250004 0.537 8.024847656250003 0.537 L 7.8703476562500025 0.537 L 7.8703476562500025 0.08400000000000007 M 10.288337402343753 0.6000000000000001 L 9.991337402343753 0.6000000000000001 L 9.991337402343753 0.6615 L 10.159337402343752 0.6615 L 10.159337402343752 0.933 Q 10.091837402343753 0.9765 10.021337402343754 0.9975 Q 9.950837402343753 1.0185 9.860837402343753 1.0185 Q 9.742337402343752 1.0185 9.653837402343752 0.9825 Q 9.565337402343753 0.9465000000000001 9.506837402343752 0.88275 Q 9.448337402343753 0.8190000000000001 9.419087402343752 0.7312500000000001 Q 9.389837402343753 0.6435000000000001 9.389837402343753 0.5385000000000001 Q 9.389837402343753 0.43500000000000005 9.417587402343752 0.3480000000000001 Q 9.445337402343753 0.261 9.500837402343754 0.19800000000000006 Q 9.556337402343752 0.135 9.636587402343753 0.10050000000000003 Q 9.716837402343753 0.06600000000000006 9.823337402343753 0.06600000000000006 Q 9.893837402343753 0.06600000000000006 9.955337402343753 0.08100000000000007 Q 10.016837402343754 0.09600000000000009 10.064837402343754 0.12 Q 10.112837402343754 0.14400000000000002 10.143587402343753 0.17475000000000007 Q 10.174337402343753 0.20550000000000002 10.183337402343753 0.237 L 10.291337402343753 0.237 Q 10.277837402343753 0.20400000000000007 10.245587402343753 0.16275000000000006 Q 10.213337402343752 0.12150000000000005 10.157837402343754 0.08550000000000002 Q 10.102337402343753 0.0495000000000001 10.020587402343754 0.02475000000000005 Q 9.938837402343752 0 9.827837402343754 0 Q 9.700337402343752 0 9.593087402343754 0.03600000000000003 Q 9.485837402343753 0.07200000000000006 9.407837402343754 0.13950000000000007 Q 9.329837402343752 0.20700000000000007 9.286337402343753 0.30525 Q 9.242837402343753 0.4035000000000001 9.242837402343753 0.528 Q 9.242837402343753 0.6345000000000001 9.276587402343752 0.7342500000000001 Q 9.310337402343754 0.8340000000000001 9.380087402343753 0.9127500000000001 Q 9.449837402343753 0.9915 9.557837402343752 1.03875 Q 9.665837402343753 1.086 9.815837402343753 1.086 Q 9.928337402343752 1.086 10.015337402343754 1.06125 Q 10.102337402343753 1.0365 10.159337402343752 1.0065 L 10.159337402343752 1.068 L 10.288337402343753 1.068 L 10.288337402343753 0.6000000000000001 M 10.451862304687502 0.543 Q 10.451862304687502 0.627 10.484112304687503 0.7222500000000001 Q 10.516362304687503 0.8175000000000001 10.585362304687504 0.8985000000000001 Q 10.654362304687503 0.9795 10.760862304687503 1.03275 Q 10.867362304687504 1.086 11.015862304687502 1.086 Q 11.116362304687502 1.086 11.198112304687502 1.06125 Q 11.279862304687503 1.0365 11.345112304687502 0.9945 Q 11.410362304687503 0.9525 11.458362304687503 0.89775 Q 11.506362304687503 0.8430000000000001 11.537112304687502 0.7822500000000001 Q 11.567862304687504 0.7215 11.583612304687502 0.66 Q 11.599362304687503 0.5985 11.599362304687503 0.543 Q 11.599362304687503 0.4590000000000001 11.564862304687503 0.36375 Q 11.530362304687502 0.26850000000000007 11.458362304687503 0.1875 Q 11.386362304687502 0.10650000000000004 11.276112304687503 0.05325000000000002 Q 11.165862304687503 0 11.015862304687502 0 Q 10.867362304687504 0 10.760862304687503 0.05249999999999999 Q 10.654362304687503 0.1050000000000001 10.585362304687504 0.18525000000000003 Q 10.516362304687503 0.26550000000000007 10.484112304687503 0.36150000000000004 Q 10.451862304687502 0.4575 10.451862304687502 0.543 M 10.598862304687502 0.543 Q 10.598862304687502 0.43800000000000006 10.631112304687504 0.35025000000000006 Q 10.663362304687503 0.26250000000000007 10.719612304687503 0.1995 Q 10.775862304687504 0.13650000000000007 10.852362304687503 0.10125000000000006 Q 10.928862304687502 0.06600000000000006 11.018862304687502 0.06600000000000006 Q 11.107362304687502 0.06600000000000006 11.186112304687503 0.10125000000000006 Q 11.264862304687503 0.13650000000000007 11.324112304687503 0.1995 Q 11.383362304687502 0.26250000000000007 11.417862304687503 0.35025000000000006 Q 11.452362304687503 0.43800000000000006 11.452362304687503 0.543 Q 11.452362304687503 0.6480000000000001 11.417862304687503 0.7357500000000001 Q 11.383362304687502 0.8235000000000001 11.324112304687503 0.8865000000000001 Q 11.264862304687503 0.9495 11.186112304687503 0.98475 Q 11.107362304687502 1.02 11.018862304687502 1.02 Q 10.928862304687502 1.02 10.852362304687503 0.98475 Q 10.775862304687504 0.9495 10.719612304687503 0.8865000000000001 Q 10.663362304687503 0.8235000000000001 10.631112304687504 0.7357500000000001 Q 10.598862304687502 0.6480000000000001 10.598862304687502 0.543 M 11.792847656250002 0.018000000000000016 L 11.792847656250002 0.663 Q 11.792847656250002 0.7245 11.804847656250002 0.7987500000000001 Q 11.816847656250003 0.873 11.861847656250003 0.9367500000000001 Q 11.906847656250003 1.0005000000000002 11.995347656250003 1.04325 Q 12.083847656250002 1.086 12.236847656250003 1.086 Q 12.332847656250003 1.086 12.407097656250002 1.056 Q 12.481347656250003 1.026 12.531597656250003 0.9735 Q 12.581847656250003 0.921 12.607347656250003 0.8512500000000001 Q 12.632847656250004 0.7815000000000001 12.632847656250004 0.7020000000000001 L 12.632847656250004 0.018000000000000016 L 12.566847656250003 0.018000000000000016 L 12.566847656250003 0.6525000000000001 Q 12.566847656250003 0.6855 12.565347656250003 0.7192500000000001 Q 12.563847656250003 0.7530000000000001 12.556347656250002 0.7867500000000001 Q 12.548847656250002 0.8205 12.533097656250003 0.8535 Q 12.517347656250003 0.8865000000000001 12.487347656250003 0.9195000000000001 Q 12.433347656250003 0.9780000000000001 12.365847656250002 0.9990000000000001 Q 12.298347656250003 1.02 12.224847656250002 1.02 Q 12.161847656250004 1.02 12.113097656250003 1.0005000000000002 Q 12.064347656250003 0.9810000000000001 12.020847656250004 0.9420000000000001 Q 11.986347656250002 0.912 11.968347656250003 0.8820000000000001 Q 11.950347656250003 0.8520000000000001 11.941347656250002 0.8227500000000001 Q 11.932347656250002 0.7935000000000001 11.930847656250002 0.7635000000000001 Q 11.929347656250004 0.7335 11.929347656250004 0.7035 L 11.929347656250004 0.018000000000000016 L 11.792847656250002 0.018000000000000016 M 12.931303710937502 1.068 L 12.931303710937502 0.018000000000000016 L 13.067803710937502 0.018000000000000016 L 13.067803710937502 0.9855 L 13.609303710937503 0.9855 L 13.609303710937503 1.068 L 12.931303710937502 1.068 M 13.847788330078128 1.068 L 13.847788330078128 0.018000000000000016 L 14.192788330078127 0.018000000000000016 Q 14.317288330078128 0.018000000000000016 14.420788330078128 0.05774999999999997 Q 14.524288330078127 0.09750000000000003 14.598538330078128 0.16725 Q 14.672788330078127 0.237 14.714038330078127 0.3330000000000001 Q 14.755288330078127 0.42900000000000005 14.755288330078127 0.54 Q 14.755288330078127 0.6555 14.712538330078127 0.7522500000000001 Q 14.669788330078127 0.8490000000000001 14.595538330078128 0.9195000000000001 Q 14.521288330078129 0.9900000000000001 14.422288330078128 1.0290000000000001 Q 14.323288330078128 1.068 14.210788330078127 1.068 L 13.847788330078128 1.068 M 13.984288330078128 1.002 L 14.149288330078127 1.002 Q 14.272288330078128 1.002 14.358538330078128 0.9607500000000001 Q 14.444788330078127 0.9195000000000001 14.500288330078128 0.8535 Q 14.555788330078128 0.7875000000000001 14.581288330078127 0.7057500000000001 Q 14.606788330078128 0.6240000000000001 14.606788330078128 0.543 Q 14.606788330078128 0.45300000000000007 14.576788330078127 0.36975 Q 14.546788330078128 0.2865000000000001 14.489038330078127 0.22275 Q 14.431288330078127 0.15900000000000003 14.345788330078127 0.12150000000000005 Q 14.260288330078128 0.08400000000000007 14.149288330078127 0.08400000000000007 L 13.984288330078128 0.08400000000000007 L 13.984288330078128 1.002 M 15.262299316406253 1.068 L 15.262299316406253 0.10050000000000003 L 15.664299316406252 0.10050000000000003 L 15.664299316406252 0.018000000000000016 L 14.723799316406252 0.018000000000000016 L 14.723799316406252 0.10050000000000003 L 15.125799316406253 0.10050000000000003 L 15.125799316406253 1.068 L 15.262299316406253 1.068 M 16.009287597656254 0.546 L 16.637787597656253 0.546 L 16.637787597656253 1.068 L 16.774287597656254 1.068 L 16.774287597656254 0.018000000000000016 L 16.637787597656253 0.018000000000000016 L 16.637787597656253 0.4770000000000001 L 16.009287597656254 0.4770000000000001 L 16.009287597656254 0.018000000000000016 L 15.872787597656252 0.018000000000000016 L 15.872787597656252 1.068 L 16.009287597656254 1.068 L 16.009287597656254 0.546 M 17.027792724609377 0.543 Q 17.027792724609377 0.627 17.060042724609378 0.7222500000000001 Q 17.09229272460938 0.8175000000000001 17.16129272460938 0.8985000000000001 Q 17.230292724609377 0.9795 17.336792724609378 1.03275 Q 17.44329272460938 1.086 17.591792724609377 1.086 Q 17.692292724609377 1.086 17.774042724609377 1.06125 Q 17.855792724609376 1.0365 17.92104272460938 0.9945 Q 17.986292724609378 0.9525 18.03429272460938 0.89775 Q 18.082292724609378 0.8430000000000001 18.11304272460938 0.7822500000000001 Q 18.143792724609376 0.7215 18.159542724609377 0.66 Q 18.175292724609378 0.5985 18.175292724609378 0.543 Q 18.175292724609378 0.4590000000000001 18.140792724609376 0.36375 Q 18.10629272460938 0.26850000000000007 18.03429272460938 0.1875 Q 17.962292724609377 0.10650000000000004 17.852042724609376 0.05325000000000002 Q 17.74179272460938 0 17.591792724609377 0 Q 17.44329272460938 0 17.336792724609378 0.05249999999999999 Q 17.230292724609377 0.1050000000000001 17.16129272460938 0.18525000000000003 Q 17.09229272460938 0.26550000000000007 17.060042724609378 0.36150000000000004 Q 17.027792724609377 0.4575 17.027792724609377 0.543 M 17.17479272460938 0.543 Q 17.17479272460938 0.43800000000000006 17.207042724609376 0.35025000000000006 Q 17.239292724609378 0.26250000000000007 17.295542724609376 0.1995 Q 17.35179272460938 0.13650000000000007 17.428292724609378 0.10125000000000006 Q 17.504792724609377 0.06600000000000006 17.594792724609377 0.06600000000000006 Q 17.683292724609377 0.06600000000000006 17.762042724609376 0.10125000000000006 Q 17.84079272460938 0.13650000000000007 17.900042724609378 0.1995 Q 17.959292724609377 0.26250000000000007 17.993792724609378 0.35025000000000006 Q 18.02829272460938 0.43800000000000006 18.02829272460938 0.543 Q 18.02829272460938 0.6480000000000001 17.993792724609378 0.7357500000000001 Q 17.959292724609377 0.8235000000000001 17.900042724609378 0.8865000000000001 Q 17.84079272460938 0.9495 17.762042724609376 0.98475 Q 17.683292724609377 1.02 17.594792724609377 1.02 Q 17.504792724609377 1.02 17.428292724609378 0.98475 Q 17.35179272460938 0.9495 17.295542724609376 0.8865000000000001 Q 17.239292724609378 0.8235000000000001 17.207042724609376 0.7357500000000001 Q 17.17479272460938 0.6480000000000001 17.17479272460938 0.543 M 18.428778076171877 0.018000000000000016 L 18.428778076171877 1.068 L 18.56527807617188 1.068 L 18.56527807617188 0.6045 L 18.631278076171878 0.6045 Q 18.673278076171876 0.6045 18.701028076171877 0.6120000000000001 Q 18.728778076171878 0.6195 18.75127807617188 0.6375000000000001 Q 18.773778076171876 0.6555 18.793278076171877 0.684 Q 18.812778076171877 0.7125000000000001 18.83977807617188 0.7545000000000001 L 18.958278076171876 0.93 Q 18.980778076171877 0.9645 19.002528076171878 0.9930000000000001 Q 19.02427807617188 1.0215 19.049778076171876 1.04175 Q 19.075278076171877 1.062 19.107528076171878 1.074 Q 19.13977807617188 1.086 19.184778076171877 1.086 Q 19.21777807617188 1.086 19.238778076171876 1.083 Q 19.259778076171877 1.08 19.280778076171877 1.068 L 19.280778076171877 1.0125 Q 19.273278076171877 1.014 19.265778076171877 1.01475 Q 19.258278076171877 1.0155 19.250778076171876 1.0155 Q 19.21927807617188 1.0155 19.195278076171878 1.0065 Q 19.171278076171877 0.9975 19.150278076171876 0.9802500000000001 Q 19.12927807617188 0.9630000000000001 19.109778076171878 0.93825 Q 19.090278076171877 0.9135000000000001 19.069278076171877 0.8820000000000001 Q 19.006278076171878 0.7905 18.971778076171876 0.7357500000000001 Q 18.93727807617188 0.681 18.917028076171878 0.651 Q 18.896778076171877 0.621 18.884028076171877 0.6075 Q 18.871278076171876 0.5940000000000001 18.85327807617188 0.5850000000000001 L 18.83827807617188 0.5775000000000001 L 18.83827807617188 0.5715000000000001 Q 18.910278076171878 0.5670000000000001 18.962028076171876 0.54 Q 19.013778076171878 0.513 19.046778076171876 0.47250000000000003 Q 19.079778076171877 0.43200000000000005 19.094778076171878 0.38475000000000004 Q 19.109778076171878 0.3375 19.109778076171878 0.2925000000000001 Q 19.109778076171878 0.252 19.094028076171877 0.20400000000000007 Q 19.078278076171877 0.15600000000000003 19.04002807617188 0.11475000000000002 Q 19.001778076171878 0.07350000000000001 18.93577807617188 0.04574999999999996 Q 18.869778076171876 0.018000000000000016 18.769278076171876 0.018000000000000016 L 18.428778076171877 0.018000000000000016 M 18.56527807617188 0.08400000000000007 L 18.716778076171877 0.08400000000000007 Q 18.773778076171876 0.08400000000000007 18.819528076171878 0.10050000000000003 Q 18.865278076171876 0.11699999999999999 18.898278076171877 0.14625 Q 18.93127807617188 0.1755 18.94852807617188 0.21600000000000008 Q 18.965778076171876 0.25650000000000006 18.965778076171876 0.3045 Q 18.965778076171876 0.3450000000000001 18.95002807617188 0.3862500000000001 Q 18.93427807617188 0.4275000000000001 18.902778076171877 0.46125000000000005 Q 18.871278076171876 0.495 18.825528076171878 0.516 Q 18.779778076171876 0.537 18.719778076171878 0.537 L 18.56527807617188 0.537 L 18.56527807617188 0.08400000000000007 M 19.64080444335938 0.6300000000000001 Q 19.679804443359377 0.6405000000000001 19.72480444335938 0.6472500000000001 Q 19.769804443359376 0.654 19.82380444335938 0.654 Q 19.91530444335938 0.654 19.985804443359378 0.6285000000000001 Q 20.056304443359377 0.603 20.10355444335938 0.5587500000000001 Q 20.150804443359377 0.5145000000000001 20.174804443359378 0.4567500000000001 Q 20.19880444335938 0.399 20.19880444335938 0.3330000000000001 Q 20.19880444335938 0.27 20.177804443359378 0.21225000000000005 Q 20.156804443359377 0.15450000000000008 20.11405444335938 0.11175000000000002 Q 20.071304443359377 0.06900000000000006 20.00680444335938 0.043500000000000094 Q 19.942304443359376 0.018000000000000016 19.855304443359376 0.018000000000000016 L 19.504304443359377 0.018000000000000016 L 19.504304443359377 1.068 L 19.64080444335938 1.068 L 19.64080444335938 0.6300000000000001 M 19.64080444335938 0.08400000000000007 L 19.798304443359378 0.08400000000000007 Q 19.861304443359376 0.08400000000000007 19.909304443359378 0.10650000000000004 Q 19.957304443359376 0.129 19.988804443359378 0.16575000000000006 Q 20.02030444335938 0.2025 20.036054443359376 0.24825000000000008 Q 20.051804443359377 0.29400000000000004 20.051804443359377 0.3390000000000001 Q 20.051804443359377 0.38250000000000006 20.037554443359376 0.4267500000000001 Q 20.02330444335938 0.4710000000000001 19.991804443359378 0.507 Q 19.960304443359377 0.543 19.91230444335938 0.5655 Q 19.864304443359377 0.5880000000000001 19.796804443359378 0.5880000000000001 Q 19.750304443359376 0.5880000000000001 19.711304443359378 0.58425 Q 19.672304443359376 0.5805 19.64080444335938 0.5685 L 19.64080444335938 0.08400000000000007 M 20.422268554687502 0.018000000000000016 L 20.422268554687502 1.068 L 21.100268554687503 1.068 L 21.100268554687503 0.9855 L 20.558768554687504 0.9855 L 20.558768554687504 0.546 L 21.023768554687503 0.546 L 21.023768554687503 0.4770000000000001 L 20.558768554687504 0.4770000000000001 L 20.558768554687504 0.10050000000000003 L 21.100268554687503 0.10050000000000003 L 21.100268554687503 0.018000000000000016 L 20.422268554687502 0.018000000000000016 M 0.4605 1.9964999999999997 L 0.4605 2.1089999999999995 L 0.09 2.1089999999999995 L 0.09 1.9964999999999997 L 0.4605 1.9964999999999997 M 1.2524699707031248 1.4039999999999997 L 1.2524699707031248 2.4539999999999997 L 1.388969970703125 2.4539999999999997 L 1.388969970703125 1.9319999999999997 L 1.8539699707031247 1.9319999999999997 L 1.8539699707031247 1.8629999999999998 L 1.388969970703125 1.8629999999999998 L 1.388969970703125 1.4864999999999997 L 1.930469970703125 1.4864999999999997 L 1.930469970703125 1.4039999999999997 L 1.2524699707031248 1.4039999999999997 M 2.15395458984375 1.4039999999999997 L 2.15395458984375 2.4539999999999997 L 2.29045458984375 2.4539999999999997 L 2.29045458984375 1.9904999999999997 L 2.3564545898437497 1.9904999999999997 Q 2.39845458984375 1.9904999999999997 2.4262045898437496 1.9979999999999998 Q 2.45395458984375 2.0054999999999996 2.4764545898437498 2.0235 Q 2.4989545898437497 2.0414999999999996 2.51845458984375 2.07 Q 2.53795458984375 2.0984999999999996 2.56495458984375 2.1405 L 2.68345458984375 2.316 Q 2.70595458984375 2.3505 2.72770458984375 2.3789999999999996 Q 2.74945458984375 2.4074999999999998 2.77495458984375 2.4277499999999996 Q 2.80045458984375 2.448 2.83270458984375 2.4599999999999995 Q 2.86495458984375 2.4719999999999995 2.9099545898437498 2.4719999999999995 Q 2.9429545898437497 2.4719999999999995 2.96395458984375 2.469 Q 2.98495458984375 2.4659999999999997 3.00595458984375 2.4539999999999997 L 3.00595458984375 2.3985 Q 2.9984545898437496 2.4 2.99095458984375 2.40075 Q 2.98345458984375 2.4014999999999995 2.9759545898437496 2.4014999999999995 Q 2.9444545898437497 2.4014999999999995 2.9204545898437497 2.3924999999999996 Q 2.8964545898437497 2.3834999999999997 2.87545458984375 2.3662499999999995 Q 2.85445458984375 2.3489999999999998 2.8349545898437496 2.3242499999999997 Q 2.8154545898437497 2.2994999999999997 2.79445458984375 2.268 Q 2.73145458984375 2.1765 2.6969545898437497 2.1217499999999996 Q 2.6624545898437497 2.0669999999999997 2.64220458984375 2.037 Q 2.62195458984375 2.0069999999999997 2.60920458984375 1.9934999999999996 Q 2.59645458984375 1.9799999999999998 2.5784545898437496 1.9709999999999996 L 2.56345458984375 1.9634999999999998 L 2.56345458984375 1.9574999999999998 Q 2.63545458984375 1.9529999999999998 2.6872045898437498 1.9259999999999997 Q 2.73895458984375 1.8989999999999996 2.77195458984375 1.8584999999999998 Q 2.80495458984375 1.8179999999999996 2.81995458984375 1.7707499999999996 Q 2.8349545898437496 1.7234999999999996 2.8349545898437496 1.6784999999999997 Q 2.8349545898437496 1.6379999999999997 2.81920458984375 1.5899999999999999 Q 2.8034545898437497 1.5419999999999998 2.7652045898437496 1.5007499999999996 Q 2.72695458984375 1.4594999999999998 2.66095458984375 1.4317499999999996 Q 2.59495458984375 1.4039999999999997 2.49445458984375 1.4039999999999997 L 2.15395458984375 1.4039999999999997 M 2.29045458984375 1.4699999999999998 L 2.44195458984375 1.4699999999999998 Q 2.4989545898437497 1.4699999999999998 2.5447045898437497 1.4864999999999997 Q 2.59045458984375 1.5029999999999997 2.6234545898437496 1.5322499999999997 Q 2.65645458984375 1.5614999999999997 2.6737045898437497 1.6019999999999999 Q 2.69095458984375 1.6424999999999996 2.69095458984375 1.6904999999999997 Q 2.69095458984375 1.7309999999999999 2.6752045898437498 1.7722499999999997 Q 2.65945458984375 1.8135 2.6279545898437497 1.8472499999999998 Q 2.59645458984375 1.8809999999999998 2.55070458984375 1.9019999999999997 Q 2.50495458984375 1.9229999999999996 2.44495458984375 1.9229999999999996 L 2.29045458984375 1.9229999999999996 L 2.29045458984375 1.4699999999999998 M 3.12448095703125 1.9289999999999998 Q 3.12448095703125 2.013 3.15673095703125 2.10825 Q 3.1889809570312497 2.2034999999999996 3.2579809570312497 2.2844999999999995 Q 3.3269809570312496 2.3655 3.4334809570312497 2.4187499999999997 Q 3.5399809570312497 2.4719999999999995 3.68848095703125 2.4719999999999995 Q 3.78898095703125 2.4719999999999995 3.87073095703125 2.44725 Q 3.95248095703125 2.4225 4.01773095703125 2.3804999999999996 Q 4.08298095703125 2.3385 4.13098095703125 2.2837499999999995 Q 4.17898095703125 2.2289999999999996 4.209730957031249 2.1682499999999996 Q 4.24048095703125 2.1075 4.256230957031249 2.046 Q 4.27198095703125 1.9844999999999997 4.27198095703125 1.9289999999999998 Q 4.27198095703125 1.8449999999999998 4.2374809570312495 1.7497499999999997 Q 4.20298095703125 1.6544999999999996 4.13098095703125 1.5734999999999997 Q 4.05898095703125 1.4924999999999997 3.9487309570312497 1.4392499999999997 Q 3.83848095703125 1.3859999999999997 3.68848095703125 1.3859999999999997 Q 3.5399809570312497 1.3859999999999997 3.4334809570312497 1.4384999999999997 Q 3.3269809570312496 1.4909999999999997 3.2579809570312497 1.5712499999999996 Q 3.1889809570312497 1.6514999999999997 3.15673095703125 1.7474999999999996 Q 3.12448095703125 1.8434999999999997 3.12448095703125 1.9289999999999998 M 3.2714809570312497 1.9289999999999998 Q 3.2714809570312497 1.8239999999999998 3.3037309570312496 1.7362499999999996 Q 3.33598095703125 1.6484999999999999 3.39223095703125 1.5854999999999997 Q 3.44848095703125 1.5224999999999997 3.52498095703125 1.4872499999999997 Q 3.60148095703125 1.4519999999999997 3.6914809570312497 1.4519999999999997 Q 3.77998095703125 1.4519999999999997 3.85873095703125 1.4872499999999997 Q 3.9374809570312497 1.5224999999999997 3.9967309570312497 1.5854999999999997 Q 4.05598095703125 1.6484999999999999 4.09048095703125 1.7362499999999996 Q 4.12498095703125 1.8239999999999998 4.12498095703125 1.9289999999999998 Q 4.12498095703125 2.034 4.09048095703125 2.1217499999999996 Q 4.05598095703125 2.2095 3.9967309570312497 2.2725 Q 3.9374809570312497 2.3354999999999997 3.85873095703125 2.3707499999999997 Q 3.77998095703125 2.4059999999999997 3.6914809570312497 2.4059999999999997 Q 3.60148095703125 2.4059999999999997 3.52498095703125 2.3707499999999997 Q 3.44848095703125 2.3354999999999997 3.39223095703125 2.2725 Q 3.33598095703125 2.2095 3.3037309570312496 2.1217499999999996 Q 3.2714809570312497 2.034 3.2714809570312497 1.9289999999999998 M 5.3714663085937495 1.4039999999999997 L 5.3714663085937495 2.2064999999999997 L 5.365466308593749 2.2064999999999997 L 4.53296630859375 1.3859999999999997 L 4.525466308593749 1.3859999999999997 L 4.525466308593749 2.4539999999999997 L 4.594466308593749 2.4539999999999997 L 4.594466308593749 1.6514999999999997 L 4.60046630859375 1.6514999999999997 L 5.43296630859375 2.4719999999999995 L 5.4404663085937495 2.4719999999999995 L 5.4404663085937495 1.4039999999999997 L 5.3714663085937495 1.4039999999999997 M 6.1874296875 2.4539999999999997 L 6.1874296875 1.4864999999999997 L 6.5894296875 1.4864999999999997 L 6.5894296875 1.4039999999999997 L 5.6489296875 1.4039999999999997 L 5.6489296875 1.4864999999999997 L 6.0509296875 1.4864999999999997 L 6.0509296875 2.4539999999999997 L 6.1874296875 2.4539999999999997 M 7.321381347656249 1.4039999999999997 L 7.321381347656249 2.4539999999999997 L 7.999381347656249 2.4539999999999997 L 7.999381347656249 2.3714999999999997 L 7.457881347656249 2.3714999999999997 L 7.457881347656249 1.9319999999999997 L 7.92288134765625 1.9319999999999997 L 7.92288134765625 1.8629999999999998 L 7.457881347656249 1.8629999999999998 L 7.457881347656249 1.4864999999999997 L 7.999381347656249 1.4864999999999997 L 7.999381347656249 1.4039999999999997 L 7.321381347656249 1.4039999999999997 M 9.068865966796874 1.4039999999999997 L 9.068865966796874 2.2064999999999997 L 9.062865966796874 2.2064999999999997 L 8.230365966796874 1.3859999999999997 L 8.222865966796874 1.3859999999999997 L 8.222865966796874 2.4539999999999997 L 8.291865966796875 2.4539999999999997 L 8.291865966796875 1.6514999999999997 L 8.297865966796875 1.6514999999999997 L 9.130365966796875 2.4719999999999995 L 9.137865966796875 2.4719999999999995 L 9.137865966796875 1.4039999999999997 L 9.068865966796874 1.4039999999999997 M 9.511329345703125 2.4539999999999997 L 9.511329345703125 1.4039999999999997 L 9.856329345703124 1.4039999999999997 Q 9.980829345703125 1.4039999999999997 10.084329345703125 1.4437499999999996 Q 10.187829345703124 1.4834999999999998 10.262079345703125 1.5532499999999998 Q 10.336329345703124 1.6229999999999998 10.377579345703124 1.7189999999999999 Q 10.418829345703124 1.8149999999999997 10.418829345703124 1.9259999999999997 Q 10.418829345703124 2.0414999999999996 10.376079345703124 2.1382499999999998 Q 10.333329345703124 2.235 10.259079345703125 2.3055 Q 10.184829345703125 2.376 10.085829345703125 2.4149999999999996 Q 9.986829345703125 2.4539999999999997 9.874329345703124 2.4539999999999997 L 9.511329345703125 2.4539999999999997 M 9.647829345703125 2.388 L 9.812829345703124 2.388 Q 9.935829345703125 2.388 10.022079345703125 2.3467499999999997 Q 10.108329345703124 2.3055 10.163829345703125 2.2394999999999996 Q 10.219329345703125 2.1734999999999998 10.244829345703124 2.0917499999999998 Q 10.270329345703125 2.01 10.270329345703125 1.9289999999999998 Q 10.270329345703125 1.8389999999999997 10.240329345703124 1.7557499999999997 Q 10.210329345703125 1.6724999999999999 10.152579345703124 1.6087499999999997 Q 10.094829345703124 1.5449999999999997 10.009329345703124 1.5074999999999998 Q 9.923829345703124 1.4699999999999998 9.812829345703124 1.4699999999999998 L 9.647829345703125 1.4699999999999998 L 9.647829345703125 2.388 M 11.180814697265625 2.4539999999999997 L 11.180814697265625 1.4039999999999997 L 11.525814697265623 1.4039999999999997 Q 11.650314697265625 1.4039999999999997 11.753814697265625 1.4437499999999996 Q 11.857314697265624 1.4834999999999998 11.931564697265625 1.5532499999999998 Q 12.005814697265624 1.6229999999999998 12.047064697265624 1.7189999999999999 Q 12.088314697265623 1.8149999999999997 12.088314697265623 1.9259999999999997 Q 12.088314697265623 2.0414999999999996 12.045564697265624 2.1382499999999998 Q 12.002814697265624 2.235 11.928564697265625 2.3055 Q 11.854314697265625 2.376 11.755314697265625 2.4149999999999996 Q 11.656314697265625 2.4539999999999997 11.543814697265624 2.4539999999999997 L 11.180814697265625 2.4539999999999997 M 11.317314697265624 2.388 L 11.482314697265624 2.388 Q 11.605314697265625 2.388 11.691564697265624 2.3467499999999997 Q 11.777814697265624 2.3055 11.833314697265624 2.2394999999999996 Q 11.888814697265625 2.1734999999999998 11.914314697265624 2.0917499999999998 Q 11.939814697265625 2.01 11.939814697265625 1.9289999999999998 Q 11.939814697265625 1.8389999999999997 11.909814697265624 1.7557499999999997 Q 11.879814697265624 1.6724999999999999 11.822064697265624 1.6087499999999997 Q 11.764314697265624 1.5449999999999997 11.678814697265624 1.5074999999999998 Q 11.593314697265624 1.4699999999999998 11.482314697265624 1.4699999999999998 L 11.317314697265624 1.4699999999999998 L 11.317314697265624 2.388 M 12.311836669921874 1.4039999999999997 L 12.311836669921874 2.4539999999999997 L 12.989836669921875 2.4539999999999997 L 12.989836669921875 2.3714999999999997 L 12.448336669921874 2.3714999999999997 L 12.448336669921874 1.9319999999999997 L 12.913336669921874 1.9319999999999997 L 12.913336669921874 1.8629999999999998 L 12.448336669921874 1.8629999999999998 L 12.448336669921874 1.4864999999999997 L 12.989836669921875 1.4864999999999997 L 12.989836669921875 1.4039999999999997 L 12.311836669921874 1.4039999999999997 M 13.0783212890625 1.4039999999999997 L 13.5178212890625 2.4539999999999997 L 13.6078212890625 2.4539999999999997 L 14.0338212890625 1.4039999999999997 L 13.955821289062499 1.4039999999999997 L 13.6063212890625 2.268 L 13.6003212890625 2.268 L 13.2403212890625 1.4039999999999997 L 13.0783212890625 1.4039999999999997 M 14.257353515624999 1.4039999999999997 L 14.257353515624999 2.4539999999999997 L 14.935353515625 2.4539999999999997 L 14.935353515625 2.3714999999999997 L 14.393853515624999 2.3714999999999997 L 14.393853515624999 1.9319999999999997 L 14.858853515624999 1.9319999999999997 L 14.858853515624999 1.8629999999999998 L 14.393853515624999 1.8629999999999998 L 14.393853515624999 1.4864999999999997 L 14.935353515625 1.4864999999999997 L 14.935353515625 1.4039999999999997 L 14.257353515624999 1.4039999999999997 M 15.158838134765624 2.4539999999999997 L 15.158838134765624 1.4039999999999997 L 15.295338134765624 1.4039999999999997 L 15.295338134765624 2.3714999999999997 L 15.836838134765625 2.3714999999999997 L 15.836838134765625 2.4539999999999997 L 15.158838134765624 2.4539999999999997 M 15.955322753906248 1.9289999999999998 Q 15.955322753906248 2.013 15.98757275390625 2.10825 Q 16.01982275390625 2.2034999999999996 16.08882275390625 2.2844999999999995 Q 16.15782275390625 2.3655 16.26432275390625 2.4187499999999997 Q 16.37082275390625 2.4719999999999995 16.51932275390625 2.4719999999999995 Q 16.61982275390625 2.4719999999999995 16.701572753906248 2.44725 Q 16.783322753906248 2.4225 16.84857275390625 2.3804999999999996 Q 16.91382275390625 2.3385 16.961822753906247 2.2837499999999995 Q 17.00982275390625 2.2289999999999996 17.04057275390625 2.1682499999999996 Q 17.071322753906248 2.1075 17.08707275390625 2.046 Q 17.10282275390625 1.9844999999999997 17.10282275390625 1.9289999999999998 Q 17.10282275390625 1.8449999999999998 17.068322753906248 1.7497499999999997 Q 17.03382275390625 1.6544999999999996 16.961822753906247 1.5734999999999997 Q 16.889822753906248 1.4924999999999997 16.779572753906248 1.4392499999999997 Q 16.66932275390625 1.3859999999999997 16.51932275390625 1.3859999999999997 Q 16.37082275390625 1.3859999999999997 16.26432275390625 1.4384999999999997 Q 16.15782275390625 1.4909999999999997 16.08882275390625 1.5712499999999996 Q 16.01982275390625 1.6514999999999997 15.98757275390625 1.7474999999999996 Q 15.955322753906248 1.8434999999999997 15.955322753906248 1.9289999999999998 M 16.10232275390625 1.9289999999999998 Q 16.10232275390625 1.8239999999999998 16.134572753906248 1.7362499999999996 Q 16.16682275390625 1.6484999999999999 16.223072753906248 1.5854999999999997 Q 16.27932275390625 1.5224999999999997 16.35582275390625 1.4872499999999997 Q 16.43232275390625 1.4519999999999997 16.52232275390625 1.4519999999999997 Q 16.61082275390625 1.4519999999999997 16.689572753906248 1.4872499999999997 Q 16.76832275390625 1.5224999999999997 16.82757275390625 1.5854999999999997 Q 16.886822753906248 1.6484999999999999 16.92132275390625 1.7362499999999996 Q 16.95582275390625 1.8239999999999998 16.95582275390625 1.9289999999999998 Q 16.95582275390625 2.034 16.92132275390625 2.1217499999999996 Q 16.886822753906248 2.2095 16.82757275390625 2.2725 Q 16.76832275390625 2.3354999999999997 16.689572753906248 2.3707499999999997 Q 16.61082275390625 2.4059999999999997 16.52232275390625 2.4059999999999997 Q 16.43232275390625 2.4059999999999997 16.35582275390625 2.3707499999999997 Q 16.27932275390625 2.3354999999999997 16.223072753906248 2.2725 Q 16.16682275390625 2.2095 16.134572753906248 2.1217499999999996 Q 16.10232275390625 2.034 16.10232275390625 1.9289999999999998 M 17.49280810546875 2.0159999999999996 Q 17.53180810546875 2.0264999999999995 17.57680810546875 2.03325 Q 17.621808105468748 2.0399999999999996 17.67580810546875 2.0399999999999996 Q 17.76730810546875 2.0399999999999996 17.83780810546875 2.0145 Q 17.90830810546875 1.9889999999999997 17.95555810546875 1.9447499999999998 Q 18.00280810546875 1.9004999999999996 18.02680810546875 1.8427499999999997 Q 18.05080810546875 1.7849999999999997 18.05080810546875 1.7189999999999999 Q 18.05080810546875 1.6559999999999997 18.02980810546875 1.5982499999999997 Q 18.00880810546875 1.5404999999999998 17.96605810546875 1.4977499999999997 Q 17.92330810546875 1.4549999999999996 17.85880810546875 1.4294999999999998 Q 17.794308105468748 1.4039999999999997 17.707308105468748 1.4039999999999997 L 17.35630810546875 1.4039999999999997 L 17.35630810546875 2.4539999999999997 L 17.49280810546875 2.4539999999999997 L 17.49280810546875 2.0159999999999996 M 17.49280810546875 1.4699999999999998 L 17.65030810546875 1.4699999999999998 Q 17.713308105468748 1.4699999999999998 17.76130810546875 1.4924999999999997 Q 17.809308105468748 1.5149999999999997 17.84080810546875 1.5517499999999997 Q 17.87230810546875 1.5884999999999998 17.888058105468748 1.6342499999999998 Q 17.903808105468748 1.6799999999999997 17.903808105468748 1.7249999999999996 Q 17.903808105468748 1.7684999999999997 17.889558105468748 1.8127499999999999 Q 17.87530810546875 1.8569999999999998 17.84380810546875 1.8929999999999998 Q 17.812308105468748 1.9289999999999998 17.76430810546875 1.9514999999999998 Q 17.716308105468748 1.9739999999999998 17.64880810546875 1.9739999999999998 Q 17.602308105468747 1.9739999999999998 17.56330810546875 1.9702499999999996 Q 17.524308105468748 1.9664999999999997 17.49280810546875 1.9544999999999997 L 17.49280810546875 1.4699999999999998 M 18.274272216796874 1.4039999999999997 L 18.274272216796874 2.4539999999999997 L 18.952272216796874 2.4539999999999997 L 18.952272216796874 2.3714999999999997 L 18.410772216796875 2.3714999999999997 L 18.410772216796875 1.9319999999999997 L 18.875772216796875 1.9319999999999997 L 18.875772216796875 1.8629999999999998 L 18.410772216796875 1.8629999999999998 L 18.410772216796875 1.4864999999999997 L 18.952272216796874 1.4864999999999997 L 18.952272216796874 1.4039999999999997 L 18.274272216796874 1.4039999999999997 M 19.1757568359375 1.4039999999999997 L 19.1757568359375 2.4539999999999997 L 19.3122568359375 2.4539999999999997 L 19.3122568359375 1.9904999999999997 L 19.3782568359375 1.9904999999999997 Q 19.420256835937497 1.9904999999999997 19.4480068359375 1.9979999999999998 Q 19.4757568359375 2.0054999999999996 19.4982568359375 2.0235 Q 19.520756835937497 2.0414999999999996 19.540256835937498 2.07 Q 19.5597568359375 2.0984999999999996 19.5867568359375 2.1405 L 19.705256835937497 2.316 Q 19.727756835937498 2.3505 19.7495068359375 2.3789999999999996 Q 19.7712568359375 2.4074999999999998 19.796756835937497 2.4277499999999996 Q 19.822256835937498 2.448 19.8545068359375 2.4599999999999995 Q 19.886756835937497 2.4719999999999995 19.9317568359375 2.4719999999999995 Q 19.9647568359375 2.4719999999999995 19.985756835937497 2.469 Q 20.006756835937498 2.4659999999999997 20.0277568359375 2.4539999999999997 L 20.0277568359375 2.3985 Q 20.0202568359375 2.4 20.0127568359375 2.40075 Q 20.005256835937498 2.4014999999999995 19.997756835937498 2.4014999999999995 Q 19.9662568359375 2.4014999999999995 19.9422568359375 2.3924999999999996 Q 19.9182568359375 2.3834999999999997 19.897256835937497 2.3662499999999995 Q 19.8762568359375 2.3489999999999998 19.8567568359375 2.3242499999999997 Q 19.8372568359375 2.2994999999999997 19.816256835937498 2.268 Q 19.7532568359375 2.1765 19.718756835937498 2.1217499999999996 Q 19.6842568359375 2.0669999999999997 19.6640068359375 2.037 Q 19.6437568359375 2.0069999999999997 19.631006835937498 1.9934999999999996 Q 19.618256835937498 1.9799999999999998 19.6002568359375 1.9709999999999996 L 19.5852568359375 1.9634999999999998 L 19.5852568359375 1.9574999999999998 Q 19.6572568359375 1.9529999999999998 19.709006835937497 1.9259999999999997 Q 19.7607568359375 1.8989999999999996 19.7937568359375 1.8584999999999998 Q 19.8267568359375 1.8179999999999996 19.8417568359375 1.7707499999999996 Q 19.8567568359375 1.7234999999999996 19.8567568359375 1.6784999999999997 Q 19.8567568359375 1.6379999999999997 19.8410068359375 1.5899999999999999 Q 19.8252568359375 1.5419999999999998 19.7870068359375 1.5007499999999996 Q 19.7487568359375 1.4594999999999998 19.6827568359375 1.4317499999999996 Q 19.616756835937498 1.4039999999999997 19.516256835937497 1.4039999999999997 L 19.1757568359375 1.4039999999999997 M 19.3122568359375 1.4699999999999998 L 19.4637568359375 1.4699999999999998 Q 19.520756835937497 1.4699999999999998 19.5665068359375 1.4864999999999997 Q 19.612256835937497 1.5029999999999997 19.6452568359375 1.5322499999999997 Q 19.6782568359375 1.5614999999999997 19.6955068359375 1.6019999999999999 Q 19.712756835937498 1.6424999999999996 19.712756835937498 1.6904999999999997 Q 19.712756835937498 1.7309999999999999 19.6970068359375 1.7722499999999997 Q 19.6812568359375 1.8135 19.6497568359375 1.8472499999999998 Q 19.618256835937498 1.8809999999999998 19.5725068359375 1.9019999999999997 Q 19.526756835937498 1.9229999999999996 19.4667568359375 1.9229999999999996 L 19.3122568359375 1.9229999999999996 L 19.3122568359375 1.4699999999999998 M 21.05524658203125 1.9964999999999997 L 21.05524658203125 2.1089999999999995 L 20.68474658203125 2.1089999999999995 L 20.68474658203125 1.9964999999999997 L 21.05524658203125 1.9964999999999997" fill="#5b6375" fill-rule="nonzero"></path></g><g></g></g><defs><clipPath id="SvgjsClipPath86065"><path d=" M 21.545253173828126 -1.3467769134095517 h 6.773967391921362 v 5.147553826819103 h -6.773967391921362 Z"></path></clipPath><clipPath id="b2ae39227-433f-4a90-abbf-8218d069c449fe2efcbc-cfb1-4666-a902-8bf658ecca35"><path d=" M 21.53653689758759 -1.3554931896500846 L 28.32793684199002 -1.3554931896500846 L 28.32793684199002 3.809493189650084 L 21.53653689758759 3.809493189650084 Z"></path></clipPath></defs></svg>